<?xml version="1.0" standalone="no"?>
<!DOCTYPE svg PUBLIC "-//W3C//DTD SVG 20010904//EN"
 "http://www.w3.org/TR/2001/REC-SVG-20010904/DTD/svg10.dtd">
<svg version="1.0" xmlns="http://www.w3.org/2000/svg"
 width="699.000000pt" height="699.000000pt" viewBox="0 0 699.000000 699.000000"
 preserveAspectRatio="xMidYMid meet">
<metadata>
Created by potrace 1.11, written by Peter Selinger 2001-2013
</metadata>
<g transform="translate(0.000000,699.000000) scale(0.100000,-0.100000)"
fill="#000000" stroke="none">
<path d="M1650 6695 c0 -9 81 -480 180 -1048 98 -568 292 -1684 430 -2482 138
-797 253 -1462 256 -1478 l6 -27 480 2 479 3 591 930 c1470 2313 2608 4107
2608 4111 0 2 -269 4 -599 4 l-598 0 -839 -1397 c-461 -769 -947 -1587 -1081
-1818 -134 -230 -243 -412 -243 -403 0 10 -20 193 -45 407 -41 362 -108 867
-335 2533 -50 361 -90 661 -90 667 0 8 -178 11 -600 11 -532 0 -600 -2 -600
-15z"/>
<path d="M440 920 l0 -370 2850 0 2850 0 0 370 0 370 -2850 0 -2850 0 0 -370z"/>
</g>
</svg>
